<!-- Generated by IcoMoon.io -->
<svg version="1.1" xmlns="http://www.w3.org/2000/svg" width="32" height="32" viewBox="0 0 32 32">
<title>key</title>
<path fill="none" stroke="#9197b3" stroke-linejoin="round" stroke-linecap="round" stroke-miterlimit="4" stroke-width="2" d="M12 29.333h8c6.667 0 9.333-2.667 9.333-9.333v-8c0-6.667-2.667-9.333-9.333-9.333h-8c-6.667 0-9.333 2.667-9.333 9.333v8c0 6.667 2.667 9.333 9.333 9.333z"></path>
<path fill="none" stroke="#9197b3" stroke-linejoin="round" stroke-linecap="round" stroke-miterlimit="10" stroke-width="2" d="M21.707 18.147c-1.001 1.005-2.387 1.627-3.917 1.627-0.591 0-1.161-0.093-1.695-0.265l0.039 0.011-3.453 3.44c-0.24 0.253-0.733 0.413-1.093 0.36l-1.6-0.213c-0.533-0.067-1.013-0.573-1.093-1.093l-0.213-1.6c-0.053-0.347 0.12-0.84 0.36-1.093l3.44-3.44c-0.587-1.907-0.133-4.067 1.373-5.573 2.16-2.16 5.68-2.16 7.853 0 2.16 2.147 2.16 5.667 0 7.84zM13.933 21.707l-1.133-1.147"></path>
<path fill="none" stroke="#9197b3" stroke-linejoin="round" stroke-linecap="round" stroke-miterlimit="4" stroke-width="2.6667" d="M17.86 14.267h0.011"></path>
</svg>
