<!-- Generated by IcoMoon.io -->
<svg version="1.1" xmlns="http://www.w3.org/2000/svg" width="32" height="32" viewBox="0 0 32 32">
<title>set</title>
<path d="M16 30.173c-0.893 0-1.8-0.201-2.506-0.614l-7.334-4.227c-2.986-2.013-3.172-2.32-3.172-5.48v-7.706c0-3.161 0.173-3.468 3.107-5.454l7.386-4.266c1.401-0.813 3.6-0.813 5.001 0l7.36 4.24c2.986 2.013 3.173 2.32 3.173 5.48v7.694c0 3.159-0.173 3.466-3.107 5.453l-7.387 4.266c-0.72 0.413-1.626 0.614-2.52 0.614zM16 3.826c-0.56 0-1.107 0.107-1.493 0.334l-7.334 4.24c-2.173 1.467-2.173 1.467-2.173 3.747v7.694c0 2.28 0 2.28 2.226 3.786l7.28 4.2c0.787 0.453 2.213 0.453 2.999 0l7.334-4.24c2.16-1.467 2.16-1.467 2.16-3.747v-7.694c0-2.28 0-2.28-2.227-3.786l-7.28-4.2c-0.387-0.227-0.934-0.334-1.494-0.334z"></path>
<path d="M16 21c-2.761-0.001-4.999-2.239-5-5v-0c0.001-2.761 2.239-4.999 5-5h0c2.761 0.001 4.999 2.239 5 5v0c-0.001 2.761-2.239 4.999-5 5h-0zM16 13c-1.656 0.002-2.998 1.344-3 3v0c0.002 1.656 1.344 2.998 3 3h0c1.656-0.002 2.998-1.344 3-3v-0c-0.002-1.656-1.344-2.998-3-3h-0z"></path>
</svg>
